<svg width="65" height="22" viewBox="0 0 65 22" fill="none" xmlns="http://www.w3.org/2000/svg">
<rect x="5.85156" y="10.4297" width="10" height="10.8127" fill="white"/>
<rect x="27.8516" y="10.4297" width="10" height="10.8127" fill="white"/>
<rect x="49.8809" y="10.4297" width="10" height="10.8127" fill="white"/>
<path d="M27.2891 1.23022C27.5135 1.23022 27.6955 1.51609 27.6955 1.86873L27.6954 5.79463L32.714 1.23537L32.7141 1.23022L32.7167 1.2326L32.7197 1.23022L32.7195 1.23537L41.6855 9.44315V20.6851L35.9208 20.6848L35.9211 13.0973C35.9211 12.8779 35.7051 12.6974 35.4284 12.6757L35.3723 12.6735H30.0671C29.7829 12.6735 29.5492 12.8403 29.5211 13.0539L29.5182 13.0973L29.5181 20.6848L23.6791 20.6851V9.44368L24.9866 8.25558L24.9866 1.86873C24.9866 1.51609 25.1685 1.23022 25.3929 1.23022L27.2891 1.23022Z" fill="white" stroke="black" stroke-width="0.5" stroke-linejoin="round"/>
<path d="M43.0884 20.7147H22.2681" stroke="black" stroke-width="0.5" stroke-linecap="round"/>
<path d="M41.4535 9.22739L43.0851 10.7252" stroke="black" stroke-width="0.5" stroke-linecap="round"/>
<path d="M23.8845 9.23703L22.2528 10.7348" stroke="black" stroke-width="0.5" stroke-linecap="round"/>
<path d="M48.5007 1.23022C48.7252 1.23022 48.9071 1.51609 48.9071 1.86873L48.907 5.79463L53.9256 1.23537L53.9257 1.23022L53.9283 1.2326L53.9313 1.23022L53.9311 1.23537L62.8971 9.44315V20.6851L57.1325 20.6848L57.1327 13.0973C57.1327 12.8779 56.9167 12.6974 56.64 12.6757L56.5839 12.6735H51.2787C50.9945 12.6735 50.7608 12.8403 50.7327 13.0539L50.7298 13.0973L50.7297 20.6848L44.8907 20.6851V9.44368L46.1982 8.25558L46.1982 1.86873C46.1982 1.51609 46.3801 1.23022 46.6045 1.23022L48.5007 1.23022Z" fill="#E91C1C" stroke="#E91C1C" stroke-width="0.5" stroke-linejoin="round"/>
<path fill-rule="evenodd" clip-rule="evenodd" d="M64.3 20.7147H43.4797H64.3Z" fill="#E91C1C"/>
<path d="M64.3 20.7147H43.4797" stroke="#E91C1C" stroke-width="0.5" stroke-linecap="round"/>
<path fill-rule="evenodd" clip-rule="evenodd" d="M62.6651 9.22739L64.2967 10.7252L62.6651 9.22739Z" fill="#E91C1C"/>
<path d="M62.6651 9.22739L64.2967 10.7252" stroke="#E91C1C" stroke-width="0.5" stroke-linecap="round"/>
<path fill-rule="evenodd" clip-rule="evenodd" d="M45.0961 9.23703L43.4644 10.7348L45.0961 9.23703Z" fill="#E91C1C"/>
<path d="M45.0961 9.23703L43.4644 10.7348" stroke="#E91C1C" stroke-width="0.5" stroke-linecap="round"/>
<path d="M6.07753 1.23022C6.30194 1.23022 6.48386 1.51609 6.48386 1.86873L6.48375 5.79463L11.5024 1.23537L11.5025 1.23022L11.5051 1.2326L11.5081 1.23022L11.5079 1.23537L20.4739 9.44315V20.6851L14.7092 20.6848L14.7095 13.0973C14.7095 12.8779 14.4935 12.6974 14.2168 12.6757L14.1607 12.6735H8.85545C8.57129 12.6735 8.33757 12.8403 8.30946 13.0539L8.30663 13.0973L8.30646 20.6848L2.46753 20.6851V9.44368L3.77495 8.25558L3.77496 1.86873C3.77496 1.51609 3.95688 1.23022 4.1813 1.23022L6.07753 1.23022Z" fill="#052DEA" stroke="#052DEA" stroke-width="0.5" stroke-linejoin="round"/>
<path d="M21.8768 20.7147H1.0565" stroke="#052DEA" stroke-width="0.5" stroke-linecap="round"/>
<path d="M20.2419 9.22739L21.8735 10.7252" stroke="#052DEA" stroke-width="0.5" stroke-linecap="round"/>
<path d="M2.67286 9.2352L1.04121 10.733" stroke="#052DEA" stroke-width="0.5" stroke-linecap="round"/>
<path d="M0.792111 11H64.8981" stroke="white" stroke-width="2.5"/>
<path d="M0.792111 11H64.8981" stroke="#FFD900" stroke-width="2.5"/>
<path fill-rule="evenodd" clip-rule="evenodd" d="M31.8727 9.79022C31.9939 9.56134 32.2776 9.47383 32.5066 9.59513C32.7355 9.7161 32.8227 10.0001 32.7015 10.2288L31.6464 12.2218C31.5624 12.3809 31.3998 12.4716 31.2315 12.4716C31.1576 12.4716 31.0825 12.4536 31.0127 12.4168C30.7838 12.2956 30.6965 12.0117 30.8176 11.783L30.8487 11.7242C30.1918 11.7341 29.5562 11.9536 29.1377 12.3277C28.7707 12.6558 28.5779 13.0828 28.5648 13.5972C28.5584 13.8519 28.3498 14.0541 28.0964 14.0541H28.0843C27.8253 14.0473 27.6208 13.8319 27.6275 13.5733C27.6469 12.801 27.9533 12.1284 28.5129 11.6284C28.6958 11.4647 28.9048 11.3248 29.1305 11.2062C26.4271 11.0663 24.8881 10.1095 24.8828 8.52947C24.8809 7.99026 25.091 7.48197 25.4735 7.09769C25.8729 6.69715 26.4211 6.47656 27.017 6.47656C27.6179 6.47656 28.2521 6.70257 28.8516 7.13037C29.5991 7.66399 30.0087 8.24337 30.4046 8.80393C30.7572 9.30313 31.0946 9.77539 31.6673 10.1783L31.8727 9.79022ZM26.1378 7.75979C25.9324 7.96587 25.8199 8.23811 25.8207 8.52628C25.8262 10.1611 28.8973 10.2883 29.8385 10.2883C30.0109 10.2883 30.1863 10.2848 30.3641 10.2784C30.0819 9.97208 29.8582 9.65553 29.6388 9.34473L29.6371 9.34243C29.2707 8.82416 28.9241 8.33404 28.3066 7.89351C27.8673 7.57984 27.4214 7.41439 27.017 7.41439C26.6723 7.41439 26.36 7.53696 26.1378 7.75979Z" fill="white"/>
<path d="M32.5066 9.59513L32.3194 9.94862L32.3197 9.94877L32.5066 9.59513ZM31.8727 9.79022L32.2263 9.97736L32.2263 9.97732L31.8727 9.79022ZM32.7015 10.2288L32.3481 10.0416L32.348 10.0417L32.7015 10.2288ZM31.6464 12.2218L31.2929 12.0347L31.2927 12.035L31.6464 12.2218ZM31.0127 12.4168L30.8256 12.7703L30.8261 12.7706L31.0127 12.4168ZM30.8176 11.783L31.1711 11.9702L31.1713 11.9699L30.8176 11.783ZM30.8487 11.7242L31.2023 11.9111L31.5178 11.3141L30.8427 11.3243L30.8487 11.7242ZM29.1377 12.3277L28.8711 12.0294L28.871 12.0295L29.1377 12.3277ZM28.5648 13.5972L28.165 13.587L28.1649 13.5872L28.5648 13.5972ZM28.0843 14.0541L28.0737 14.4541H28.0843V14.0541ZM27.6275 13.5733L28.0273 13.5836L28.0273 13.5833L27.6275 13.5733ZM28.5129 11.6284L28.7794 11.9267L28.7796 11.9265L28.5129 11.6284ZM29.1305 11.2062L29.3165 11.5603L30.6073 10.8821L29.1512 10.8067L29.1305 11.2062ZM24.8828 8.52947L25.2828 8.52813L25.2828 8.52805L24.8828 8.52947ZM25.4735 7.09769L25.1903 6.81525L25.19 6.8155L25.4735 7.09769ZM28.8516 7.13037L29.084 6.80481L29.0839 6.80477L28.8516 7.13037ZM30.4046 8.80393L30.7314 8.57317L30.7313 8.57317L30.4046 8.80393ZM31.6673 10.1783L31.4371 10.5055L31.8084 10.7667L32.0208 10.3655L31.6673 10.1783ZM25.8207 8.52628L25.4207 8.52738L25.4207 8.52764L25.8207 8.52628ZM26.1378 7.75979L25.8546 7.47735L25.8546 7.47738L26.1378 7.75979ZM30.3641 10.2784L30.3785 10.6782L31.2477 10.647L30.6583 10.0074L30.3641 10.2784ZM29.6388 9.34473L29.9655 9.114L29.9654 9.11382L29.6388 9.34473ZM29.6371 9.34243L29.9638 9.11153L29.9637 9.1115L29.6371 9.34243ZM28.3066 7.89351L28.0742 8.21904L28.0743 8.21914L28.3066 7.89351ZM32.6938 9.24163C32.2693 9.01684 31.7436 9.17911 31.5192 9.60311L32.2263 9.97732C32.2441 9.94356 32.2858 9.93082 32.3194 9.94862L32.6938 9.24163ZM33.055 10.4161C33.2794 9.99235 33.1182 9.46594 32.6935 9.24148L32.3197 9.94877C32.3528 9.96626 32.3659 10.0079 32.3481 10.0416L33.055 10.4161ZM31.9999 12.409L33.0551 10.416L32.348 10.0417L31.2929 12.0347L31.9999 12.409ZM31.2315 12.8716C31.542 12.8716 31.844 12.7042 32.0001 12.4086L31.2927 12.035C31.2808 12.0576 31.2576 12.0716 31.2315 12.0716V12.8716ZM30.8261 12.7706C30.9533 12.8376 31.0924 12.8716 31.2315 12.8716V12.0716C31.2227 12.0716 31.2117 12.0695 31.1993 12.0629L30.8261 12.7706ZM30.4641 11.5958C30.2395 12.0199 30.4015 12.5458 30.8256 12.7703L31.1998 12.0632C31.1661 12.0454 31.1534 12.0036 31.1711 11.9702L30.4641 11.5958ZM30.495 11.5373L30.4639 11.5961L31.1713 11.9699L31.2023 11.9111L30.495 11.5373ZM29.4042 12.6259C29.7369 12.3286 30.2733 12.1329 30.8547 12.1242L30.8427 11.3243C30.1104 11.3353 29.3756 11.5786 28.8711 12.0294L29.4042 12.6259ZM28.9647 13.6073C28.9751 13.1978 29.1236 12.8769 29.4043 12.6258L28.871 12.0295C28.4179 12.4348 28.1807 12.9679 28.165 13.587L28.9647 13.6073ZM28.0964 14.4541C28.5662 14.4541 28.9529 14.0795 28.9647 13.6072L28.1649 13.5872C28.164 13.6243 28.1334 13.6541 28.0964 13.6541V14.4541ZM28.0843 14.4541H28.0964V13.6541H28.0843V14.4541ZM27.2276 13.5629C27.2152 14.0427 27.5943 14.4413 28.0737 14.454L28.0949 13.6543C28.0562 13.6533 28.0264 13.6212 28.0273 13.5836L27.2276 13.5629ZM28.2464 11.3301C27.6018 11.906 27.2497 12.6842 27.2276 13.5632L28.0273 13.5833C28.0441 12.9179 28.3047 12.3508 28.7794 11.9267L28.2464 11.3301ZM28.9444 10.8521C28.6944 10.9835 28.4573 11.1414 28.2462 11.3303L28.7796 11.9265C28.9344 11.788 29.1152 11.6661 29.3165 11.5603L28.9444 10.8521ZM24.4828 8.5308C24.486 9.47625 24.9591 10.2298 25.7822 10.7466C26.5866 11.2517 27.7241 11.5339 29.1098 11.6057L29.1512 10.8067C27.8335 10.7385 26.8498 10.4724 26.2076 10.0691C25.584 9.67755 25.2849 9.16269 25.2828 8.52813L24.4828 8.5308ZM25.19 6.8155C24.7332 7.27441 24.4805 7.88446 24.4828 8.53088L25.2828 8.52805C25.2813 8.09606 25.4488 7.68954 25.757 7.37989L25.19 6.8155ZM27.017 6.07656C26.3211 6.07656 25.6691 6.33509 25.1903 6.81525L25.7568 7.38014C26.0768 7.05922 26.521 6.87656 27.017 6.87656V6.07656ZM29.0839 6.80477C28.4322 6.33967 27.7185 6.07656 27.017 6.07656V6.87656C27.5174 6.87656 28.072 7.06548 28.6192 7.45596L29.0839 6.80477ZM30.7313 8.57317C30.3342 8.01089 29.8915 7.38125 29.084 6.80481L28.6192 7.45593C29.3067 7.94674 29.6832 8.47584 30.0779 9.03469L30.7313 8.57317ZM31.8975 9.85118C31.3875 9.49241 31.0848 9.07357 30.7314 8.57317L30.0779 9.03468C30.4296 9.53269 30.8017 10.0584 31.4371 10.5055L31.8975 9.85118ZM31.5192 9.60307L31.3138 9.99118L32.0208 10.3655L32.2263 9.97736L31.5192 9.60307ZM26.2207 8.52517C26.2202 8.34424 26.29 8.17373 26.4211 8.04219L25.8546 7.47738C25.5748 7.75802 25.4196 8.13197 25.4207 8.52738L26.2207 8.52517ZM29.8385 9.8883C29.3769 9.8883 28.4161 9.85622 27.5817 9.63384C27.1631 9.52227 26.8095 9.37117 26.5678 9.17849C26.3377 8.99514 26.2216 8.78729 26.2207 8.52491L25.4207 8.52764C25.4226 9.08268 25.6924 9.50379 26.0691 9.80409C26.4342 10.095 26.9083 10.2823 27.3757 10.4069C28.3135 10.6568 29.3588 10.6883 29.8385 10.6883V9.8883ZM30.3498 9.87867C30.1761 9.8849 30.0056 9.8883 29.8385 9.8883V10.6883C30.0163 10.6883 30.1965 10.6847 30.3785 10.6782L30.3498 9.87867ZM29.312 9.57546C29.5299 9.88401 29.7675 10.2213 30.07 10.5495L30.6583 10.0074C30.3962 9.7229 30.1866 9.42706 29.9655 9.114L29.312 9.57546ZM29.3105 9.57334L29.3121 9.57563L29.9654 9.11382L29.9638 9.11153L29.3105 9.57334ZM28.0743 8.21914C28.6308 8.61615 28.9435 9.05431 29.3105 9.57337L29.9637 9.1115C29.5978 8.594 29.2174 8.05194 28.5389 7.56788L28.0743 8.21914ZM27.017 7.81439C27.3143 7.81439 27.6805 7.93793 28.0742 8.21904L28.5391 7.56799C28.0542 7.22175 27.5284 7.01439 27.017 7.01439V7.81439ZM26.4211 8.04222C26.5606 7.90231 26.7672 7.81439 27.017 7.81439V7.01439C26.5773 7.01439 26.1595 7.17161 25.8546 7.47735L26.4211 8.04222Z" fill="white"/>
<path fill-rule="evenodd" clip-rule="evenodd" d="M38.6924 7.10504C38.9559 7.10504 39.2281 7.15541 39.5021 7.25566C40.2999 7.54686 40.8053 8.26171 40.821 9.12113C40.8394 10.1234 40.1977 11.0121 39.1462 11.4407C38.5635 11.6779 37.7925 11.7982 36.8553 11.7982H36.8552C35.8743 11.7982 34.958 11.6713 34.3436 11.5605C34.7663 11.9657 35.2816 12.6906 35.3775 13.8758C35.3987 14.1338 35.2063 14.36 34.9481 14.3809C34.9352 14.3822 34.9225 14.3826 34.9099 14.3826C34.6681 14.3826 34.4629 14.197 34.443 13.9515C34.3241 12.4863 33.3965 11.9981 33.3571 11.9781C33.3088 11.9534 33.268 11.9204 33.2325 11.8833L33.0533 12.222C32.9693 12.3811 32.8068 12.4718 32.6384 12.4718C32.5645 12.4718 32.4894 12.4537 32.4196 12.4169C32.1906 12.2958 32.1032 12.0119 32.2245 11.7832L33.2795 9.79023C33.4005 9.56135 33.6845 9.47385 33.9134 9.59514C34.1424 9.71628 34.2296 10.0001 34.1085 10.2289L33.9827 10.4664C34.7962 10.3027 35.411 9.59387 36.0583 8.84618C36.7984 7.99012 37.5641 7.10504 38.6924 7.10504ZM36.8553 10.8602C37.6709 10.8602 38.3225 10.763 38.7924 10.5717C39.61 10.2384 39.8921 9.61267 39.8834 9.13802C39.8749 8.66847 39.6121 8.29407 39.1803 8.13643C39.0075 8.07332 38.848 8.04303 38.6924 8.04303C37.9929 8.04303 37.425 8.69939 36.7674 9.45966C36.3745 9.91423 35.9545 10.3996 35.4596 10.7765C35.9105 10.8272 36.3888 10.8602 36.8553 10.8602Z" fill="white"/>
<path d="M39.5021 7.25566L39.3647 7.6313L39.365 7.63141L39.5021 7.25566ZM40.821 9.12113L41.221 9.11381V9.11378L40.821 9.12113ZM39.1462 11.4407L39.297 11.8112L39.2972 11.8111L39.1462 11.4407ZM34.3436 11.5605L34.4145 11.1669L33.1093 10.9316L34.0668 11.8493L34.3436 11.5605ZM35.3775 13.8758L34.9788 13.9081L34.9789 13.9085L35.3775 13.8758ZM34.9481 14.3809L34.9159 13.9821L34.9088 13.9828L34.9481 14.3809ZM34.443 13.9515L34.0443 13.9839L34.0443 13.9839L34.443 13.9515ZM33.3571 11.9781L33.175 12.3342L33.1765 12.335L33.3571 11.9781ZM33.2325 11.8833L33.5215 11.6067L33.1381 11.2062L32.8789 11.6963L33.2325 11.8833ZM33.0533 12.222L32.6997 12.035L32.6996 12.0352L33.0533 12.222ZM32.4196 12.4169L32.2326 12.7705L32.233 12.7707L32.4196 12.4169ZM32.2245 11.7832L32.5779 11.9706L32.578 11.9703L32.2245 11.7832ZM33.2795 9.79023L33.633 9.97737L33.6331 9.97715L33.2795 9.79023ZM33.9134 9.59514L33.7261 9.94858L33.7264 9.94874L33.9134 9.59514ZM34.1085 10.2289L33.755 10.0417L33.755 10.0417L34.1085 10.2289ZM33.9827 10.4664L33.6292 10.2792L33.2343 11.025L34.0616 10.8585L33.9827 10.4664ZM36.0583 8.84618L36.3607 9.10799L36.3608 9.10781L36.0583 8.84618ZM38.7924 10.5717L38.9432 10.9422L38.9434 10.9421L38.7924 10.5717ZM39.8834 9.13802L39.4834 9.14522L39.4834 9.14541L39.8834 9.13802ZM39.1803 8.13643L39.0431 8.51215L39.0431 8.51218L39.1803 8.13643ZM36.7674 9.45966L36.4648 9.19798L36.4647 9.1981L36.7674 9.45966ZM35.4596 10.7765L35.2172 10.4583L34.4238 11.0626L35.4149 11.174L35.4596 10.7765ZM39.6396 6.88002C39.3259 6.76523 39.0072 6.70504 38.6924 6.70504V7.50504C38.9046 7.50504 39.1304 7.54558 39.3647 7.6313L39.6396 6.88002ZM41.221 9.11378C41.2022 8.09175 40.5948 7.22873 39.6393 6.87991L39.365 7.63141C40.0049 7.865 40.4083 8.43167 40.4211 9.12847L41.221 9.11378ZM39.2972 11.8111C40.4754 11.3308 41.2428 10.308 41.221 9.11381L40.4211 9.12844C40.4359 9.93871 39.92 10.6933 38.9952 11.0703L39.2972 11.8111ZM36.8553 12.1982C37.8213 12.1982 38.649 12.0749 39.297 11.8112L38.9954 11.0702C38.478 11.2808 37.7638 11.3982 36.8553 11.3982V12.1982ZM36.8552 12.1982H36.8553V11.3982H36.8552V12.1982ZM34.2726 11.9542C34.9008 12.0675 35.8424 12.1982 36.8552 12.1982V11.3982C35.9062 11.3982 35.0152 11.2752 34.4145 11.1669L34.2726 11.9542ZM35.7762 13.8435C35.6711 12.5457 35.1019 11.7333 34.6204 11.2718L34.0668 11.8493C34.4306 12.1981 34.892 12.8355 34.9788 13.9081L35.7762 13.8435ZM34.9804 14.7796C35.4585 14.7409 35.8155 14.3219 35.7762 13.843L34.9789 13.9085C34.9819 13.9458 34.9541 13.9791 34.9159 13.9822L34.9804 14.7796ZM34.9099 14.7826C34.9325 14.7826 34.9587 14.7818 34.9874 14.779L34.9088 13.9828C34.9117 13.9825 34.9124 13.9826 34.9099 13.9826V14.7826ZM34.0443 13.9839C34.0812 14.4386 34.4614 14.7826 34.9099 14.7826V13.9826C34.8748 13.9826 34.8446 13.9553 34.8417 13.9191L34.0443 13.9839ZM33.1765 12.335C33.1471 12.3202 33.9409 12.7098 34.0443 13.9839L34.8417 13.9192C34.7073 12.2628 33.6458 11.6759 33.5377 11.6212L33.1765 12.335ZM32.9435 12.1599C33.003 12.222 33.0788 12.285 33.175 12.3342L33.5393 11.622C33.5389 11.6218 33.5331 11.6189 33.5215 11.6067L32.9435 12.1599ZM33.4069 12.409L33.5861 12.0703L32.8789 11.6963L32.6997 12.035L33.4069 12.409ZM32.6384 12.8718C32.9489 12.8718 33.251 12.7043 33.407 12.4088L32.6996 12.0352C32.6877 12.0578 32.6646 12.0718 32.6384 12.0718V12.8718ZM32.233 12.7707C32.3602 12.8378 32.4993 12.8718 32.6384 12.8718V12.0718C32.6297 12.0718 32.6186 12.0697 32.6062 12.0631L32.233 12.7707ZM31.8711 11.5958C31.6462 12.02 31.8083 12.5461 32.2326 12.7705L32.6066 12.0633C32.5729 12.0455 32.5603 12.0038 32.5779 11.9706L31.8711 11.5958ZM32.926 9.60309L31.871 11.5961L32.578 11.9703L33.633 9.97737L32.926 9.60309ZM34.1007 9.2417C33.6764 9.01688 33.1501 9.17899 32.9259 9.60331L33.6331 9.97715C33.6508 9.94371 33.6926 9.93082 33.7261 9.94858L34.1007 9.2417ZM34.462 10.4161C34.6865 9.99218 34.5249 9.46607 34.1004 9.24155L33.7264 9.94874C33.7599 9.96648 33.7728 10.0081 33.755 10.0417L34.462 10.4161ZM34.3362 10.6535L34.462 10.4161L33.755 10.0417L33.6292 10.2792L34.3362 10.6535ZM35.7558 8.58438C35.4279 8.96319 35.1315 9.30407 34.821 9.57284C34.5137 9.8389 34.218 10.011 33.9038 10.0742L34.0616 10.8585C34.5609 10.758 34.9794 10.4939 35.3446 10.1777C35.7067 9.86422 36.0413 9.47686 36.3607 9.10799L35.7558 8.58438ZM38.6924 6.70504C38.0137 6.70504 37.4564 6.97415 36.9853 7.33803C36.5227 7.69532 36.1201 8.16313 35.7557 8.58456L36.3608 9.10781C36.7366 8.67317 37.0869 8.2704 37.4743 7.97114C37.8532 7.67847 38.2429 7.50504 38.6924 7.50504V6.70504ZM38.6416 10.2012C38.2398 10.3648 37.6467 10.4602 36.8553 10.4602V11.2602C37.6951 11.2602 38.4052 11.1612 38.9432 10.9422L38.6416 10.2012ZM39.4834 9.14541C39.4891 9.4513 39.3092 9.92908 38.6414 10.2013L38.9434 10.9421C39.9108 10.5478 40.2952 9.77405 40.2833 9.13063L39.4834 9.14541ZM39.0431 8.51218C39.3151 8.61148 39.4779 8.83625 39.4834 9.14522L40.2833 9.13083C40.272 8.50068 39.9091 7.97666 39.3175 7.76069L39.0431 8.51218ZM38.6924 8.44303C38.7941 8.44303 38.9071 8.46246 39.0431 8.51215L39.3176 7.76072C39.108 7.68417 38.9019 7.64303 38.6924 7.64303V8.44303ZM37.0699 9.72135C37.405 9.33393 37.6888 9.00761 37.9699 8.77381C38.2478 8.54272 38.4759 8.44303 38.6924 8.44303V7.64303C38.2094 7.64303 37.8038 7.87153 37.4584 8.15868C37.1164 8.44312 36.7874 8.82512 36.4648 9.19798L37.0699 9.72135ZM35.702 11.0947C36.2355 10.6884 36.6818 10.1704 37.07 9.72123L36.4647 9.1981C36.0671 9.65811 35.6735 10.1108 35.2172 10.4583L35.702 11.0947ZM36.8553 10.4602C36.4069 10.4602 35.9438 10.4284 35.5043 10.379L35.4149 11.174C35.8772 11.226 36.3708 11.2602 36.8553 11.2602V10.4602Z" fill="white"/>
<path fill-rule="evenodd" clip-rule="evenodd" d="M31.8727 9.79022C31.9939 9.56134 32.2776 9.47383 32.5066 9.59513C32.7355 9.7161 32.8227 10.0001 32.7015 10.2288L31.6464 12.2218C31.5624 12.3809 31.3998 12.4716 31.2315 12.4716C31.1576 12.4716 31.0825 12.4536 31.0127 12.4168C30.7838 12.2956 30.6965 12.0117 30.8176 11.783L30.8487 11.7242C30.1918 11.7341 29.5562 11.9536 29.1377 12.3277C28.7707 12.6558 28.5779 13.0828 28.5648 13.5972C28.5584 13.8519 28.3498 14.0541 28.0964 14.0541H28.0843C27.8253 14.0473 27.6208 13.8319 27.6275 13.5733C27.6469 12.801 27.9533 12.1284 28.5129 11.6284C28.6958 11.4647 28.9048 11.3248 29.1305 11.2062C26.4271 11.0663 24.8881 10.1095 24.8828 8.52947C24.8809 7.99026 25.091 7.48197 25.4735 7.09769C25.8729 6.69715 26.4211 6.47656 27.017 6.47656C27.6179 6.47656 28.2521 6.70257 28.8516 7.13037C29.5991 7.66399 30.0087 8.24337 30.4046 8.80393C30.7572 9.30313 31.0946 9.77539 31.6673 10.1783L31.8727 9.79022ZM26.1378 7.75979C25.9324 7.96587 25.8199 8.23811 25.8207 8.52628C25.8262 10.1611 28.8973 10.2883 29.8385 10.2883C30.0109 10.2883 30.1863 10.2848 30.3641 10.2784C30.0819 9.97208 29.8582 9.65553 29.6388 9.34473L29.6371 9.34243C29.2707 8.82416 28.9241 8.33404 28.3066 7.89351C27.8673 7.57984 27.4214 7.41439 27.017 7.41439C26.6723 7.41439 26.36 7.53696 26.1378 7.75979Z" fill="#FFD900"/>
<path d="M32.5066 9.59513L32.4364 9.72768L32.4365 9.72774L32.5066 9.59513ZM31.8727 9.79022L32.0053 9.86039L32.0053 9.86038L31.8727 9.79022ZM32.7015 10.2288L32.569 10.1586L32.569 10.1587L32.7015 10.2288ZM31.6464 12.2218L31.5138 12.1516L31.5138 12.1518L31.6464 12.2218ZM31.0127 12.4168L30.9425 12.5493L30.9427 12.5494L31.0127 12.4168ZM30.8176 11.783L30.9502 11.8532L30.9502 11.8531L30.8176 11.783ZM30.8487 11.7242L30.9813 11.7943L31.0996 11.5704L30.8464 11.5742L30.8487 11.7242ZM29.1377 12.3277L29.0377 12.2158L29.0377 12.2159L29.1377 12.3277ZM28.5648 13.5972L28.4149 13.5934L28.4149 13.5934L28.5648 13.5972ZM28.0843 14.0541L28.0803 14.2041H28.0843V14.0541ZM27.6275 13.5733L27.7774 13.5771L27.7774 13.577L27.6275 13.5733ZM28.5129 11.6284L28.6128 11.7403L28.6129 11.7402L28.5129 11.6284ZM29.1305 11.2062L29.2003 11.339L29.6843 11.0847L29.1382 11.0564L29.1305 11.2062ZM24.8828 8.52947L25.0328 8.52897L25.0328 8.52893L24.8828 8.52947ZM25.4735 7.09769L25.3673 6.99178L25.3672 6.99187L25.4735 7.09769ZM28.8516 7.13037L28.9387 7.00828L28.9387 7.00827L28.8516 7.13037ZM30.4046 8.80393L30.5271 8.7174L30.5271 8.71739L30.4046 8.80393ZM31.6673 10.1783L31.581 10.301L31.7202 10.399L31.7999 10.2485L31.6673 10.1783ZM25.8207 8.52628L25.6707 8.52669L25.6707 8.52679L25.8207 8.52628ZM26.1378 7.75979L26.0316 7.65387L26.0316 7.65388L26.1378 7.75979ZM30.3641 10.2784L30.3695 10.4283L30.6955 10.4166L30.4745 10.1768L30.3641 10.2784ZM29.6388 9.34473L29.7613 9.2582L29.7613 9.25814L29.6388 9.34473ZM29.6371 9.34243L29.7596 9.25584L29.7596 9.25583L29.6371 9.34243ZM28.3066 7.89351L28.2194 8.01558L28.2195 8.01562L28.3066 7.89351ZM32.5768 9.46257C32.2745 9.30246 31.9 9.418 31.7402 9.72005L32.0053 9.86038C32.0877 9.70467 32.2807 9.6452 32.4364 9.72768L32.5768 9.46257ZM32.8341 10.2991C32.994 9.99721 32.879 9.62229 32.5767 9.46251L32.4365 9.72774C32.592 9.80991 32.6514 10.003 32.569 10.1586L32.8341 10.2991ZM31.779 12.292L32.8341 10.299L32.569 10.1587L31.5138 12.1516L31.779 12.292ZM31.2315 12.6216C31.4532 12.6216 31.668 12.5021 31.779 12.2919L31.5138 12.1518C31.4568 12.2597 31.3465 12.3216 31.2315 12.3216V12.6216ZM30.9427 12.5494C31.034 12.5976 31.1331 12.6216 31.2315 12.6216V12.3216C31.182 12.3216 31.1309 12.3095 31.0827 12.2841L30.9427 12.5494ZM30.685 11.7128C30.5251 12.0148 30.6404 12.3895 30.9425 12.5493L31.0829 12.2842C30.9272 12.2018 30.8678 12.0087 30.9502 11.8532L30.685 11.7128ZM30.7161 11.6541L30.685 11.7129L30.9502 11.8531L30.9813 11.7943L30.7161 11.6541ZM29.2376 12.4395C29.624 12.0942 30.2224 11.8837 30.8509 11.8742L30.8464 11.5742C30.1613 11.5845 29.4885 11.8129 29.0377 12.2158L29.2376 12.4395ZM28.7148 13.601C28.7268 13.1259 28.9031 12.7387 29.2377 12.4395L29.0377 12.2159C28.6384 12.5729 28.4289 13.0397 28.4149 13.5934L28.7148 13.601ZM28.0964 14.2041C28.431 14.2041 28.7064 13.9372 28.7148 13.6009L28.4149 13.5934C28.4105 13.7665 28.2687 13.9041 28.0964 13.9041V14.2041ZM28.0843 14.2041H28.0964V13.9041H28.0843V14.2041ZM27.4775 13.5694C27.4687 13.911 27.7386 14.195 28.0803 14.2041L28.0882 13.9042C27.9119 13.8995 27.7729 13.7529 27.7774 13.5771L27.4775 13.5694ZM28.4129 11.5166C27.8215 12.045 27.498 12.7572 27.4775 13.5695L27.7774 13.577C27.7959 12.8448 28.0851 12.2118 28.6128 11.7403L28.4129 11.5166ZM29.0607 11.0734C28.8259 11.1968 28.6064 11.3435 28.4129 11.5166L28.6129 11.7402C28.7853 11.586 28.9837 11.4528 29.2003 11.339L29.0607 11.0734ZM24.7328 8.52996C24.7357 9.37826 25.1544 10.0572 25.9151 10.5349C26.6688 11.0082 27.7583 11.2854 29.1227 11.356L29.1382 11.0564C27.7993 10.9871 26.7676 10.7159 26.0746 10.2808C25.3887 9.85012 25.0353 9.26067 25.0328 8.52897L24.7328 8.52996ZM25.3672 6.99187C24.9568 7.40414 24.7308 7.95058 24.7328 8.53L25.0328 8.52893C25.0311 8.02994 25.2251 7.55981 25.5798 7.20352L25.3672 6.99187ZM27.017 6.32656C26.3836 6.32656 25.7965 6.56138 25.3673 6.99178L25.5797 7.20361C25.9494 6.83293 26.4586 6.62656 27.017 6.62656V6.32656ZM28.9387 7.00827C28.3196 6.56648 27.6556 6.32656 27.017 6.32656V6.62656C27.5802 6.62656 28.1846 6.83866 28.7644 7.25246L28.9387 7.00827ZM30.5271 8.71739C30.1308 8.15619 29.7087 7.55797 28.9387 7.00828L28.7644 7.25245C29.4894 7.77002 29.8866 8.33054 30.2821 8.89046L30.5271 8.71739ZM31.7536 10.0556C31.2045 9.66928 30.88 9.21704 30.5271 8.7174L30.2821 8.89046C30.6343 9.38921 30.9848 9.88151 31.581 10.301L31.7536 10.0556ZM31.7402 9.72004L31.5347 10.1081L31.7999 10.2485L32.0053 9.86039L31.7402 9.72004ZM25.9707 8.52586C25.97 8.27791 26.0665 8.04382 26.2441 7.86569L26.0316 7.65388C25.7983 7.88793 25.6698 8.19831 25.6707 8.52669L25.9707 8.52586ZM29.8385 10.1383C29.3713 10.1383 28.3841 10.1064 27.5173 9.87541C27.0834 9.75977 26.6922 9.59738 26.4119 9.37399C26.136 9.15409 25.9719 8.8796 25.9707 8.52577L25.6707 8.52679C25.6722 8.99037 25.894 9.34484 26.225 9.60859C26.5515 9.86884 26.9879 10.0448 27.4401 10.1653C28.3456 10.4066 29.3645 10.4383 29.8385 10.4383V10.1383ZM30.3588 10.1285C30.1824 10.1348 30.0089 10.1383 29.8385 10.1383V10.4383C30.013 10.4383 30.1901 10.4348 30.3695 10.4283L30.3588 10.1285ZM29.5162 9.43125C29.7351 9.74121 29.964 10.0655 30.2538 10.3801L30.4745 10.1768C30.1997 9.87863 29.9814 9.56986 29.7613 9.2582L29.5162 9.43125ZM29.5147 9.42902L29.5163 9.43132L29.7613 9.25814L29.7596 9.25584L29.5147 9.42902ZM28.2195 8.01562C28.8141 8.43983 29.148 8.91047 29.5147 9.42903L29.7596 9.25583C29.3934 8.73785 29.0341 8.22825 28.3937 7.7714L28.2195 8.01562ZM27.017 7.56439C27.3812 7.56439 27.7973 7.71412 28.2194 8.01558L28.3938 7.77144C27.9374 7.44555 27.4615 7.26439 27.017 7.26439V7.56439ZM26.2441 7.8657C26.4352 7.67397 26.7079 7.56439 27.017 7.56439V7.26439C26.6366 7.26439 26.2848 7.39996 26.0316 7.65387L26.2441 7.8657Z" fill="#FFD900"/>
<path fill-rule="evenodd" clip-rule="evenodd" d="M38.6924 7.10504C38.9559 7.10504 39.2281 7.15541 39.5021 7.25566C40.2999 7.54686 40.8053 8.26171 40.821 9.12113C40.8394 10.1234 40.1977 11.0121 39.1462 11.4407C38.5635 11.6779 37.7925 11.7982 36.8553 11.7982H36.8552C35.8743 11.7982 34.958 11.6713 34.3436 11.5605C34.7663 11.9657 35.2816 12.6906 35.3775 13.8758C35.3987 14.1338 35.2063 14.36 34.9481 14.3809C34.9352 14.3822 34.9225 14.3826 34.9099 14.3826C34.6681 14.3826 34.4629 14.197 34.443 13.9515C34.3241 12.4863 33.3965 11.9981 33.3571 11.9781C33.3088 11.9534 33.268 11.9204 33.2325 11.8833L33.0533 12.222C32.9693 12.3811 32.8068 12.4718 32.6384 12.4718C32.5645 12.4718 32.4894 12.4537 32.4196 12.4169C32.1906 12.2958 32.1032 12.0119 32.2245 11.7832L33.2795 9.79023C33.4005 9.56135 33.6845 9.47385 33.9134 9.59514C34.1424 9.71628 34.2296 10.0001 34.1085 10.2289L33.9827 10.4664C34.7962 10.3027 35.411 9.59387 36.0583 8.84618C36.7984 7.99012 37.5641 7.10504 38.6924 7.10504ZM36.8553 10.8602C37.6709 10.8602 38.3225 10.763 38.7924 10.5717C39.61 10.2384 39.8921 9.61267 39.8834 9.13802C39.8749 8.66847 39.6121 8.29407 39.1803 8.13643C39.0075 8.07332 38.848 8.04303 38.6924 8.04303C37.9929 8.04303 37.425 8.69939 36.7674 9.45966C36.3745 9.91423 35.9545 10.3996 35.4596 10.7765C35.9105 10.8272 36.3888 10.8602 36.8553 10.8602Z" fill="#FFD900"/>
<path d="M39.5021 7.25566L39.4506 7.39653L39.4507 7.39657L39.5021 7.25566ZM40.821 9.12113L40.971 9.11838V9.11837L40.821 9.12113ZM39.1462 11.4407L39.2028 11.5796L39.2028 11.5796L39.1462 11.4407ZM34.3436 11.5605L34.3702 11.4129L33.8807 11.3247L34.2398 11.6688L34.3436 11.5605ZM35.3775 13.8758L35.228 13.8879L35.228 13.8881L35.3775 13.8758ZM34.9481 14.3809L34.936 14.2314L34.9334 14.2316L34.9481 14.3809ZM34.443 13.9515L34.2935 13.9636L34.2935 13.9636L34.443 13.9515ZM33.3571 11.9781L33.2888 12.1117L33.2894 12.112L33.3571 11.9781ZM33.2325 11.8833L33.3408 11.7796L33.1971 11.6294L33.0999 11.8132L33.2325 11.8833ZM33.0533 12.222L32.9207 12.1519L32.9207 12.152L33.0533 12.222ZM32.4196 12.4169L32.3495 12.5495L32.3496 12.5496L32.4196 12.4169ZM32.2245 11.7832L32.357 11.8535L32.3571 11.8534L32.2245 11.7832ZM33.2795 9.79023L33.4121 9.86041L33.4121 9.86033L33.2795 9.79023ZM33.9134 9.59514L33.8431 9.72768L33.8433 9.72774L33.9134 9.59514ZM34.1085 10.2289L33.9759 10.1587L33.9759 10.1587L34.1085 10.2289ZM33.9827 10.4664L33.8502 10.3962L33.7021 10.6758L34.0123 10.6134L33.9827 10.4664ZM36.0583 8.84618L36.1717 8.94436L36.1717 8.94429L36.0583 8.84618ZM38.7924 10.5717L38.8489 10.7106L38.849 10.7106L38.7924 10.5717ZM39.8834 9.13802L39.7334 9.14072L39.7334 9.14079L39.8834 9.13802ZM39.1803 8.13643L39.1288 8.27733L39.1289 8.27734L39.1803 8.13643ZM36.7674 9.45966L36.6539 9.36153L36.6539 9.36158L36.7674 9.45966ZM35.4596 10.7765L35.3687 10.6572L35.0712 10.8838L35.4428 10.9256L35.4596 10.7765ZM39.5537 7.1148C39.2648 7.00909 38.9751 6.95504 38.6924 6.95504V7.25504C38.9367 7.25504 39.1915 7.30172 39.4506 7.39653L39.5537 7.1148ZM40.971 9.11837C40.9541 8.19798 40.4105 7.42756 39.5536 7.11476L39.4507 7.39657C40.1892 7.66616 40.6564 8.32545 40.6711 9.12388L40.971 9.11837ZM39.2028 11.5796C40.3018 11.1316 40.9907 10.1926 40.971 9.11838L40.6711 9.12387C40.6881 10.0541 40.0935 10.8926 39.0896 11.3018L39.2028 11.5796ZM36.8553 11.9482C37.8033 11.9482 38.5955 11.8268 39.2028 11.5796L39.0897 11.3017C38.5314 11.5289 37.7818 11.6482 36.8553 11.6482V11.9482ZM36.8552 11.9482H36.8553V11.6482H36.8552V11.9482ZM34.317 11.7082C34.9366 11.8199 35.8623 11.9482 36.8552 11.9482V11.6482C35.8863 11.6482 34.9795 11.5228 34.3702 11.4129L34.317 11.7082ZM35.527 13.8637C35.4276 12.6362 34.8921 11.8786 34.4474 11.4523L34.2398 11.6688C34.6404 12.0528 35.1355 12.7449 35.228 13.8879L35.527 13.8637ZM34.9602 14.5304C35.3009 14.5029 35.555 14.2044 35.527 13.8635L35.228 13.8881C35.2424 14.0633 35.1118 14.2172 34.936 14.2314L34.9602 14.5304ZM34.9099 14.5326C34.9262 14.5326 34.944 14.532 34.9629 14.5302L34.9334 14.2316C34.9264 14.2323 34.9187 14.2326 34.9099 14.2326V14.5326ZM34.2935 13.9636C34.3198 14.2876 34.5906 14.5326 34.9099 14.5326V14.2326C34.7456 14.2326 34.6061 14.1063 34.5925 13.9394L34.2935 13.9636ZM33.2894 12.112C33.303 12.1189 34.1804 12.5701 34.2935 13.9636L34.5925 13.9394C34.4678 12.4025 33.49 11.8773 33.4249 11.8443L33.2894 12.112ZM33.1241 11.987C33.1686 12.0335 33.2226 12.0778 33.2888 12.1117L33.4254 11.8446C33.3951 11.8291 33.3674 11.8073 33.3408 11.7796L33.1241 11.987ZM33.1859 12.2921L33.3651 11.9534L33.0999 11.8132L32.9207 12.1519L33.1859 12.2921ZM32.6384 12.6218C32.8601 12.6218 33.0749 12.5023 33.186 12.292L32.9207 12.152C32.8637 12.2598 32.7534 12.3218 32.6384 12.3218V12.6218ZM32.3496 12.5496C32.441 12.5978 32.54 12.6218 32.6384 12.6218V12.3218C32.5889 12.3218 32.5379 12.3097 32.4896 12.2842L32.3496 12.5496ZM32.092 11.7129C31.9318 12.015 32.0472 12.3897 32.3495 12.5495L32.4897 12.2843C32.3339 12.2019 32.2746 12.0089 32.357 11.8535L32.092 11.7129ZM33.1469 9.72006L32.0919 11.713L32.3571 11.8534L33.4121 9.86041L33.1469 9.72006ZM33.9836 9.4626C33.6815 9.30248 33.3066 9.41797 33.1469 9.72014L33.4121 9.86033C33.4944 9.70474 33.6875 9.64521 33.8431 9.72768L33.9836 9.4626ZM34.241 10.2991C34.4009 9.99716 34.2859 9.62245 33.9835 9.46254L33.8433 9.72774C33.999 9.8101 34.0583 10.0031 33.9759 10.1587L34.241 10.2991ZM34.1153 10.5365L34.241 10.2991L33.9759 10.1587L33.8502 10.3962L34.1153 10.5365ZM35.9448 8.74801C35.6196 9.12371 35.3113 9.47912 34.9846 9.76186C34.6592 10.0436 34.3252 10.2444 33.9531 10.3193L34.0123 10.6134C34.4538 10.5246 34.8339 10.2892 35.181 9.98867C35.527 9.68917 35.8496 9.31634 36.1717 8.94436L35.9448 8.74801ZM38.6924 6.95504C38.0853 6.95504 37.5804 7.19425 37.1381 7.53588C36.699 7.87504 36.3127 8.32252 35.9448 8.74808L36.1717 8.94429C36.544 8.51378 36.9106 8.09069 37.3215 7.7733C37.7292 7.45837 38.1713 7.25504 38.6924 7.25504V6.95504ZM38.7358 10.4328C38.2915 10.6136 37.6619 10.7102 36.8553 10.7102V11.0102C37.68 11.0102 38.3535 10.9123 38.8489 10.7106L38.7358 10.4328ZM39.7334 9.14079C39.741 9.55216 39.4972 10.1224 38.7358 10.4328L38.849 10.7106C39.7228 10.3544 40.0433 9.67319 40.0333 9.13525L39.7334 9.14079ZM39.1289 8.27734C39.5007 8.4131 39.726 8.73139 39.7334 9.14072L40.0334 9.13532C40.0238 8.60555 39.7235 8.17504 39.2318 7.99553L39.1289 8.27734ZM38.6924 8.19303C38.8278 8.19303 38.9699 8.21925 39.1288 8.27733L39.2318 7.99554C39.0452 7.92739 38.8682 7.89303 38.6924 7.89303V8.19303ZM36.8808 9.55779C37.212 9.17493 37.5099 8.83121 37.8101 8.58158C38.1091 8.33297 38.3926 8.19303 38.6924 8.19303V7.89303C38.2927 7.89303 37.9425 8.08127 37.6183 8.35091C37.2952 8.61953 36.9804 8.98412 36.6539 9.36153L36.8808 9.55779ZM35.5505 10.8958C36.0599 10.5079 36.4897 10.0103 36.8808 9.55775L36.6539 9.36158C36.2592 9.81819 35.8491 10.2913 35.3687 10.6572L35.5505 10.8958ZM36.8553 10.7102C36.3956 10.7102 35.923 10.6777 35.4763 10.6275L35.4428 10.9256C35.898 10.9767 36.382 11.0102 36.8553 11.0102V10.7102Z" fill="#FFD900"/>
</svg>
