<svg width="18" height="17" viewBox="0 0 18 17" fill="none" xmlns="http://www.w3.org/2000/svg">
<g opacity="0.910211">
<path d="M5.06903 1C5.24376 1 5.38541 1.22258 5.38541 1.49715L5.38532 4.55394L9.29292 1.004L9.29299 1L9.29505 1.00185L9.29735 1L9.29719 1.004L16.2783 7.39476V16.1479L11.7899 16.1478L11.79 10.2399C11.79 10.0691 11.6219 9.92858 11.4064 9.91168L11.3627 9.90998H7.23197C7.01072 9.90998 6.82874 10.0398 6.80686 10.2062L6.80465 10.2399L6.80452 16.1478L2.25821 16.1479V7.39517L3.27619 6.47009L3.2762 1.49715C3.2762 1.22258 3.41785 1 3.59258 1L5.06903 1Z" stroke="#171518" stroke-width="0.95" stroke-linejoin="round"/>
<path d="M17.3706 16.171H1.15956" stroke="#171518" stroke-width="0.95" stroke-linecap="round"/>
<path d="M16.0977 7.22525L17.3681 8.39146" stroke="#171518" stroke-width="0.95" stroke-linecap="round"/>
<path d="M2.4181 7.23279L1.14766 8.399" stroke="#171518" stroke-width="0.95" stroke-linecap="round"/>
</g>
</svg>
