<svg width="90" height="100" viewBox="0 0 90 100" fill="none" xmlns="http://www.w3.org/2000/svg">
<rect x="3" y="6" width="79.0175" height="94" fill="black"/>
<rect x="4.60352" y="8.22266" width="3.41116" height="89.543" fill="#E8E8E8"/>
<path d="M76.0458 73.3477C76.1269 73.781 76.5963 74.0618 77.4539 74.19C78.0837 74.2958 78.7428 74.4167 79.4311 74.5527C80.1045 74.6842 80.4319 74.9883 80.4133 75.4652L80.4133 81.0821C80.4143 81.1068 80.4143 81.1319 80.4133 81.1576L80.4133 82.9653C80.4143 82.991 80.4143 83.0161 80.4133 83.0408L80.4133 86.0443C80.4143 86.069 80.4143 86.0942 80.4133 86.1198L80.4133 88.6578C80.4143 88.6834 80.4143 88.7086 80.4133 88.7333L80.4133 93.62C80.4319 94.0968 80.1045 94.401 79.4311 94.5324C78.7428 94.6684 78.0837 94.7894 77.4539 94.8952C76.5963 95.0233 76.1269 95.3041 76.0458 95.7375L76.0458 73.3477Z" fill="#052DEA"/>
<path d="M76.0484 53.375C76.1288 53.8103 76.5939 54.0923 77.4437 54.221C78.0678 54.3273 78.7209 54.4487 79.403 54.5853C80.0702 54.7173 80.3947 55.0228 80.3762 55.5017L80.3762 61.0911C80.3772 61.1159 80.3772 61.1412 80.3762 61.1669L80.3762 63.0345C80.3772 63.0602 80.3772 63.0855 80.3762 63.1103L80.3762 66.0296C80.3772 66.0543 80.3772 66.0796 80.3762 66.1054L80.3762 68.6997C80.3772 68.7255 80.3772 68.7507 80.3762 68.7755L80.3762 73.6381C80.3947 74.1171 80.0702 74.4225 79.403 74.5545C78.7209 74.6911 78.0678 74.8126 77.4437 74.9189C76.5939 75.0476 76.1288 75.3296 76.0484 75.7648L76.0484 53.375Z" fill="#00EB3E"/>
<path d="M75.9959 33.4805C76.0764 33.9155 76.5421 34.1973 77.393 34.3259C78.0179 34.4321 78.6718 34.5535 79.3548 34.69C80.023 34.8219 80.3478 35.1272 80.3293 35.6059L80.3293 41.1993C80.3303 41.224 80.3303 41.2493 80.3293 41.275L80.3293 43.1339C80.3303 43.1597 80.3303 43.1849 80.3293 43.2097L80.3293 46.1411C80.3303 46.1658 80.3303 46.1911 80.3293 46.2168L80.3293 48.8031C80.3303 48.8289 80.3303 48.8541 80.3293 48.8789L80.3293 53.7449C80.3478 54.2236 80.023 54.5288 79.3548 54.6607C78.6718 54.7973 78.0179 54.9186 77.393 55.0249C76.5421 55.1535 76.0764 55.4353 75.9959 55.8703L75.9959 33.4805Z" fill="#FFD900"/>
<path d="M76.0485 12.707C76.128 13.2015 76.5881 13.5219 77.4287 13.6681C78.0461 13.7888 78.6921 13.9268 79.3669 14.082C80.027 14.2319 80.3479 14.5789 80.3296 15.123V20.8915C80.3306 20.9196 80.3306 20.9483 80.3296 20.9776V23.6804C80.3306 23.7097 80.3306 23.7384 80.3296 23.7665V25.9949C80.3306 26.0231 80.3306 26.0518 80.3296 26.0811V29.535C80.3306 29.5643 80.3306 29.593 80.3296 29.6211L80.3296 34.6385C80.3479 35.1825 80.027 35.5295 79.3669 35.6795C78.6921 35.8347 78.0461 35.9727 77.4287 36.0934C76.5881 36.2396 76.128 36.56 76.0485 37.0544L76.0485 12.707Z" fill="#E91C1C"/>
<path d="M4.60376 8.22272H76.7971C76.876 8.22272 76.9399 8.28667 76.9399 8.36557V97.6392C76.9399 97.7181 76.876 97.7821 76.7971 97.7821H4.60376V8.22272Z" fill="white"/>
<path d="M34.5601 20.9342C34.5601 21.073 34.5146 21.1847 34.4237 21.2695C34.3327 21.3543 34.1963 21.3967 34.0143 21.3967H33.6882V22.0859H33.5263V20.4693H34.0143C34.1947 20.4693 34.3304 20.5117 34.4214 20.5965C34.5139 20.6813 34.5601 20.7939 34.5601 20.9342ZM34.0143 21.258C34.2672 21.258 34.3936 21.1501 34.3936 20.9342C34.3936 20.8263 34.3635 20.7446 34.3034 20.6891C34.2433 20.6335 34.1469 20.6058 34.0143 20.6058H33.6882V21.258H34.0143ZM35.0942 21.0475C35.1297 20.9689 35.1836 20.908 35.2561 20.8648C35.3301 20.8217 35.4203 20.8001 35.5267 20.8001V20.9689H35.4827C35.3656 20.9689 35.2715 21.0005 35.2006 21.0637C35.1297 21.1269 35.0942 21.2325 35.0942 21.3806V22.0859H34.9323V20.8232H35.0942V21.0475ZM36.4235 22.1044C36.3048 22.1044 36.1976 22.0782 36.1021 22.0258C36.008 21.9718 35.9332 21.8963 35.8777 21.7992C35.8238 21.7005 35.7968 21.5856 35.7968 21.4546C35.7968 21.3235 35.8245 21.2094 35.88 21.1123C35.9355 21.0136 36.0111 20.9381 36.1067 20.8856C36.2023 20.8317 36.3094 20.8047 36.4281 20.8047C36.5469 20.8047 36.654 20.8317 36.7496 20.8856C36.8467 20.9381 36.9223 21.0136 36.9763 21.1123C37.0318 21.2094 37.0595 21.3235 37.0595 21.4546C37.0595 21.5841 37.0318 21.6982 36.9763 21.7968C36.9208 21.8955 36.8444 21.9718 36.7473 22.0258C36.6502 22.0782 36.5422 22.1044 36.4235 22.1044ZM36.4235 21.9634C36.5068 21.9634 36.5839 21.9449 36.6548 21.9079C36.7257 21.8693 36.7828 21.8123 36.8259 21.7367C36.8706 21.6596 36.893 21.5656 36.893 21.4546C36.893 21.3436 36.8714 21.2503 36.8282 21.1747C36.7851 21.0976 36.728 21.0406 36.6571 21.0036C36.5862 20.965 36.5091 20.9458 36.4258 20.9458C36.3426 20.9458 36.2655 20.965 36.1946 21.0036C36.1236 21.0406 36.0666 21.0976 36.0234 21.1747C35.9818 21.2503 35.961 21.3436 35.961 21.4546C35.961 21.5656 35.9818 21.6596 36.0234 21.7367C36.0666 21.8123 36.1229 21.8693 36.1922 21.9079C36.2632 21.9449 36.3403 21.9634 36.4235 21.9634ZM37.6148 21.1007C37.6548 21.0159 37.7181 20.9458 37.8044 20.8903C37.8923 20.8332 37.9964 20.8047 38.1166 20.8047C38.2307 20.8047 38.3332 20.8317 38.4242 20.8856C38.5167 20.9381 38.5884 21.0136 38.6393 21.1123C38.6917 21.2094 38.7179 21.3227 38.7179 21.4523C38.7179 21.5818 38.6917 21.6959 38.6393 21.7945C38.5884 21.8932 38.5167 21.9695 38.4242 22.0235C38.3332 22.0775 38.2307 22.1044 38.1166 22.1044C37.9979 22.1044 37.8946 22.0767 37.8067 22.0212C37.7188 21.9641 37.6548 21.8932 37.6148 21.8084V22.6826H37.4552V20.8232H37.6148V21.1007ZM38.5537 21.4523C38.5537 21.3474 38.5329 21.2572 38.4913 21.1817C38.4512 21.1046 38.3957 21.046 38.3248 21.0059C38.2538 20.9658 38.1737 20.9458 38.0842 20.9458C37.9979 20.9458 37.9185 20.9666 37.846 21.0082C37.7751 21.0498 37.7188 21.1092 37.6772 21.1863C37.6356 21.2634 37.6148 21.3528 37.6148 21.4546C37.6148 21.5563 37.6356 21.6457 37.6772 21.7228C37.7188 21.7999 37.7751 21.8593 37.846 21.9009C37.9185 21.9425 37.9979 21.9634 38.0842 21.9634C38.1737 21.9634 38.2538 21.9433 38.3248 21.9032C38.3957 21.8616 38.4512 21.8022 38.4913 21.7252C38.5329 21.6465 38.5537 21.5556 38.5537 21.4523ZM40.2588 21.3898C40.2588 21.4453 40.2573 21.4877 40.2542 21.517H39.2066C39.2112 21.6126 39.2343 21.6943 39.2759 21.7622C39.3176 21.83 39.3723 21.8816 39.4401 21.9171C39.508 21.951 39.582 21.968 39.6622 21.968C39.767 21.968 39.8549 21.9425 39.9258 21.8917C39.9983 21.8408 40.0461 21.7722 40.0692 21.6858H40.2403C40.2095 21.8092 40.1432 21.9102 40.0415 21.9888C39.9412 22.0659 39.8148 22.1044 39.6622 22.1044C39.5434 22.1044 39.4371 22.0782 39.343 22.0258C39.249 21.9718 39.175 21.8963 39.121 21.7992C39.0686 21.7005 39.0424 21.5856 39.0424 21.4546C39.0424 21.3235 39.0686 21.2086 39.121 21.11C39.1734 21.0113 39.2466 20.9357 39.3407 20.8833C39.4347 20.8309 39.5419 20.8047 39.6622 20.8047C39.7824 20.8047 39.8873 20.8309 39.9767 20.8833C40.0677 20.9357 40.137 21.0067 40.1848 21.0961C40.2342 21.184 40.2588 21.2819 40.2588 21.3898ZM40.0946 21.3852C40.0962 21.2911 40.0769 21.211 40.0368 21.1447C39.9983 21.0784 39.9451 21.0283 39.8772 20.9943C39.8094 20.9604 39.7354 20.9435 39.6552 20.9435C39.535 20.9435 39.4324 20.982 39.3476 21.0591C39.2628 21.1362 39.2158 21.2449 39.2066 21.3852H40.0946ZM40.8175 21.0475C40.8529 20.9689 40.9069 20.908 40.9794 20.8648C41.0534 20.8217 41.1436 20.8001 41.25 20.8001V20.9689H41.206C41.0888 20.9689 40.9948 21.0005 40.9239 21.0637C40.8529 21.1269 40.8175 21.2325 40.8175 21.3806V22.0859H40.6556V20.8232H40.8175V21.0475ZM41.8045 20.9596V21.7437C41.8045 21.8207 41.8192 21.8739 41.8485 21.9032C41.8777 21.9325 41.9294 21.9472 42.0034 21.9472H42.1514V22.0859H41.978C41.8639 22.0859 41.7791 22.0597 41.7236 22.0073C41.6681 21.9533 41.6403 21.8655 41.6403 21.7437V20.9596H41.4645V20.8232H41.6403V20.5063H41.8045V20.8232H42.1514V20.9596H41.8045ZM43.5597 20.8232L42.8104 22.6803H42.6415L42.8867 22.079L42.3686 20.8232H42.5467L42.9769 21.9009L43.3932 20.8232H43.5597ZM45.0937 20.4693C45.2725 20.4693 45.426 20.5017 45.5539 20.5665C45.6819 20.6312 45.7798 20.7245 45.8476 20.8463C45.9155 20.9681 45.9494 21.1131 45.9494 21.2811C45.9494 21.4476 45.9155 21.5918 45.8476 21.7136C45.7798 21.8339 45.6819 21.9264 45.5539 21.9911C45.426 22.0543 45.2725 22.0859 45.0937 22.0859H44.615V20.4693H45.0937ZM45.0937 21.9518C45.3188 21.9518 45.4899 21.8932 45.6071 21.776C45.7258 21.6573 45.7852 21.4923 45.7852 21.2811C45.7852 21.0683 45.7258 20.9026 45.6071 20.7839C45.4899 20.6636 45.3188 20.6035 45.0937 20.6035H44.7769V21.9518H45.0937ZM47.4909 21.3898C47.4909 21.4453 47.4894 21.4877 47.4863 21.517H46.4386C46.4432 21.6126 46.4664 21.6943 46.508 21.7622C46.5496 21.83 46.6044 21.8816 46.6722 21.9171C46.74 21.951 46.8141 21.968 46.8942 21.968C46.9991 21.968 47.087 21.9425 47.1579 21.8917C47.2303 21.8408 47.2781 21.7722 47.3013 21.6858H47.4724C47.4416 21.8092 47.3753 21.9102 47.2735 21.9888C47.1733 22.0659 47.0469 22.1044 46.8942 22.1044C46.7755 22.1044 46.6691 22.0782 46.5751 22.0258C46.481 21.9718 46.407 21.8963 46.353 21.7992C46.3006 21.7005 46.2744 21.5856 46.2744 21.4546C46.2744 21.3235 46.3006 21.2086 46.353 21.11C46.4055 21.0113 46.4787 20.9357 46.5728 20.8833C46.6668 20.8309 46.774 20.8047 46.8942 20.8047C47.0145 20.8047 47.1193 20.8309 47.2088 20.8833C47.2997 20.9357 47.3691 21.0067 47.4169 21.0961C47.4662 21.184 47.4909 21.2819 47.4909 21.3898ZM47.3267 21.3852C47.3282 21.2911 47.309 21.211 47.2689 21.1447C47.2303 21.0784 47.1771 21.0283 47.1093 20.9943C47.0415 20.9604 46.9675 20.9435 46.8873 20.9435C46.767 20.9435 46.6645 20.982 46.5797 21.0591C46.4949 21.1362 46.4479 21.2449 46.4386 21.3852H47.3267ZM48.0981 20.9596V21.7437C48.0981 21.8207 48.1128 21.8739 48.1421 21.9032C48.1713 21.9325 48.223 21.9472 48.297 21.9472H48.445V22.0859H48.2716C48.1575 22.0859 48.0727 22.0597 48.0172 22.0073C47.9617 21.9533 47.9339 21.8655 47.9339 21.7437V20.9596H47.7581V20.8232H47.9339V20.5063H48.0981V20.8232H48.445V20.9596H48.0981ZM48.7386 21.4523C48.7386 21.3227 48.764 21.2094 48.8149 21.1123C48.8673 21.0136 48.939 20.9381 49.03 20.8856C49.1225 20.8317 49.2265 20.8047 49.3422 20.8047C49.4624 20.8047 49.5657 20.8324 49.6521 20.8879C49.74 20.9435 49.8032 21.0144 49.8417 21.1007V20.8232H50.0036V22.0859H49.8417V21.8061C49.8016 21.8924 49.7377 21.9641 49.6498 22.0212C49.5634 22.0767 49.4601 22.1044 49.3399 22.1044C49.2258 22.1044 49.1225 22.0775 49.03 22.0235C48.939 21.9695 48.8673 21.8932 48.8149 21.7945C48.764 21.6959 48.7386 21.5818 48.7386 21.4523ZM49.8417 21.4546C49.8417 21.3528 49.8209 21.2634 49.7793 21.1863C49.7377 21.1092 49.6806 21.0498 49.6081 21.0082C49.5372 20.9666 49.4586 20.9458 49.3722 20.9458C49.2828 20.9458 49.2026 20.9658 49.1317 21.0059C49.0608 21.046 49.0045 21.1046 48.9629 21.1817C48.9228 21.2572 48.9028 21.3474 48.9028 21.4523C48.9028 21.5556 48.9228 21.6465 48.9629 21.7252C49.0045 21.8022 49.0608 21.8616 49.1317 21.9032C49.2026 21.9433 49.2828 21.9634 49.3722 21.9634C49.4586 21.9634 49.5372 21.9425 49.6081 21.9009C49.6806 21.8593 49.7377 21.7999 49.7793 21.7228C49.8209 21.6457 49.8417 21.5563 49.8417 21.4546ZM50.5547 20.585C50.5223 20.585 50.4946 20.5734 50.4714 20.5503C50.4483 20.5272 50.4367 20.4986 50.4367 20.4647C50.4367 20.4308 50.4483 20.403 50.4714 20.3815C50.4946 20.3583 50.5223 20.3468 50.5547 20.3468C50.5871 20.3468 50.6148 20.3583 50.638 20.3815C50.6611 20.403 50.6726 20.4308 50.6726 20.4647C50.6726 20.4986 50.6611 20.5272 50.638 20.5503C50.6148 20.5734 50.5871 20.585 50.5547 20.585ZM50.6356 20.8232V22.0859H50.4738V20.8232H50.6356ZM51.2647 20.3745V22.0859H51.1028V20.3745H51.2647Z" fill="black"/>
<g clip-path="url(#clip0)">
<path d="M35.7139 83.6601V83.5098H36.1193V85.2196H35.95V83.6601H35.7139ZM36.5167 84.8142V84.6878L37.3847 83.5194H37.5827V84.6688H37.8378V84.8142H37.5827V85.2196H37.4181V84.8142H36.5167ZM37.4253 83.703L36.7099 84.6688H37.4253V83.703ZM39.8433 83.5528V83.6911H39.1089V84.3135H39.7289V84.4518H39.1089V85.2196H38.942V83.5528H39.8433ZM40.3842 83.455V85.2196H40.2173V83.455H40.3842ZM41.4315 85.2387C41.3091 85.2387 41.1986 85.2117 41.1001 85.1576C41.0031 85.102 40.926 85.0241 40.8688 84.9239C40.8131 84.8222 40.7853 84.7037 40.7853 84.5686C40.7853 84.4335 40.8139 84.3158 40.8711 84.2157C40.9284 84.1139 41.0063 84.036 41.1048 83.982C41.2034 83.9263 41.3139 83.8985 41.4363 83.8985C41.5587 83.8985 41.6692 83.9263 41.7678 83.982C41.8679 84.036 41.9458 84.1139 42.0015 84.2157C42.0587 84.3158 42.0873 84.4335 42.0873 84.5686C42.0873 84.7021 42.0587 84.8198 42.0015 84.9215C41.9442 85.0233 41.8655 85.102 41.7654 85.1576C41.6652 85.2117 41.5539 85.2387 41.4315 85.2387ZM41.4315 85.0932C41.5174 85.0932 41.5969 85.0741 41.67 85.036C41.7431 84.9962 41.8019 84.9374 41.8465 84.8595C41.8926 84.78 41.9156 84.6831 41.9156 84.5686C41.9156 84.4541 41.8934 84.358 41.8488 84.2801C41.8043 84.2006 41.7455 84.1418 41.6724 84.1036C41.5992 84.0639 41.5198 84.044 41.4339 84.044C41.3481 84.044 41.2686 84.0639 41.1955 84.1036C41.1223 84.1418 41.0635 84.2006 41.019 84.2801C40.9761 84.358 40.9546 84.4541 40.9546 84.5686C40.9546 84.6831 40.9761 84.78 41.019 84.8595C41.0635 84.9374 41.1215 84.9962 41.1931 85.036C41.2662 85.0741 41.3457 85.0932 41.4315 85.0932ZM43.0609 85.2387C42.9385 85.2387 42.828 85.2117 42.7294 85.1576C42.6324 85.102 42.5553 85.0241 42.4981 84.9239C42.4425 84.8222 42.4146 84.7037 42.4146 84.5686C42.4146 84.4335 42.4432 84.3158 42.5005 84.2157C42.5577 84.1139 42.6356 84.036 42.7342 83.982C42.8327 83.9263 42.9432 83.8985 43.0656 83.8985C43.188 83.8985 43.2985 83.9263 43.3971 83.982C43.4972 84.036 43.5751 84.1139 43.6308 84.2157C43.688 84.3158 43.7166 84.4335 43.7166 84.5686C43.7166 84.7021 43.688 84.8198 43.6308 84.9215C43.5736 85.0233 43.4949 85.102 43.3947 85.1576C43.2946 85.2117 43.1833 85.2387 43.0609 85.2387ZM43.0609 85.0932C43.1467 85.0932 43.2262 85.0741 43.2993 85.036C43.3725 84.9962 43.4313 84.9374 43.4758 84.8595C43.5219 84.78 43.5449 84.6831 43.5449 84.5686C43.5449 84.4541 43.5227 84.358 43.4782 84.2801C43.4337 84.2006 43.3748 84.1418 43.3017 84.1036C43.2286 84.0639 43.1491 84.044 43.0632 84.044C42.9774 84.044 42.8979 84.0639 42.8248 84.1036C42.7517 84.1418 42.6928 84.2006 42.6483 84.2801C42.6054 84.358 42.5839 84.4541 42.5839 84.5686C42.5839 84.6831 42.6054 84.78 42.6483 84.8595C42.6928 84.9374 42.7509 84.9962 42.8224 85.036C42.8955 85.0741 42.975 85.0932 43.0609 85.0932ZM44.044 84.5662C44.044 84.4327 44.071 84.3158 44.125 84.2157C44.1791 84.1139 44.253 84.036 44.3468 83.982C44.4422 83.9263 44.5495 83.8985 44.6687 83.8985C44.7832 83.8985 44.8865 83.9263 44.9787 83.982C45.0709 84.0376 45.1385 84.11 45.1814 84.199V83.455H45.3483V85.2196H45.1814V84.9287C45.1417 85.0193 45.0765 85.094 44.9859 85.1528C44.8953 85.2101 44.7888 85.2387 44.6663 85.2387C44.5471 85.2387 44.4398 85.2109 44.3444 85.1552C44.2506 85.0996 44.1767 85.0209 44.1227 84.9191C44.0702 84.8174 44.044 84.6998 44.044 84.5662ZM45.1814 84.5686C45.1814 84.4637 45.16 84.3715 45.117 84.292C45.0741 84.2125 45.0153 84.1513 44.9406 84.1084C44.8674 84.0655 44.7864 84.044 44.6973 84.044C44.6051 84.044 44.5225 84.0647 44.4493 84.106C44.3762 84.1473 44.3182 84.2077 44.2753 84.2872C44.2339 84.3651 44.2133 84.4581 44.2133 84.5662C44.2133 84.6727 44.2339 84.7665 44.2753 84.8476C44.3182 84.9271 44.3762 84.9883 44.4493 85.0312C44.5225 85.0726 44.6051 85.0932 44.6973 85.0932C44.7864 85.0932 44.8674 85.0718 44.9406 85.0288C45.0153 84.9859 45.0741 84.9247 45.117 84.8452C45.16 84.7657 45.1814 84.6735 45.1814 84.5686ZM47.088 85.2363C46.9784 85.2363 46.8814 85.2172 46.7971 85.1791C46.7145 85.1409 46.6493 85.0877 46.6016 85.0193C46.5539 84.9509 46.5285 84.8746 46.5253 84.7904H46.7017C46.7097 84.8715 46.7455 84.943 46.809 85.005C46.8726 85.0654 46.9656 85.0956 47.088 85.0956C47.2009 85.0956 47.2899 85.067 47.3551 85.0098C47.4219 84.9509 47.4553 84.877 47.4553 84.788C47.4553 84.7165 47.437 84.6592 47.4004 84.6163C47.3639 84.5718 47.3186 84.5392 47.2645 84.5185C47.2105 84.4963 47.1357 84.4724 47.0404 84.447C46.9291 84.4168 46.8408 84.3874 46.7757 84.3588C46.7105 84.3301 46.6548 84.2856 46.6087 84.2252C46.5626 84.1648 46.5396 84.0829 46.5396 83.9796C46.5396 83.8938 46.5618 83.8175 46.6064 83.7507C46.6509 83.6823 46.7137 83.6291 46.7947 83.5909C46.8758 83.5528 46.9688 83.5337 47.0737 83.5337C47.2279 83.5337 47.3519 83.5718 47.4457 83.6481C47.5411 83.7229 47.596 83.8198 47.6103 83.9391H47.429C47.4179 83.8707 47.3806 83.8103 47.317 83.7578C47.2534 83.7038 47.1675 83.6768 47.0594 83.6768C46.9593 83.6768 46.8758 83.7038 46.809 83.7578C46.7423 83.8103 46.7089 83.8826 46.7089 83.9748C46.7089 84.0448 46.7272 84.1012 46.7637 84.1441C46.8003 84.1871 46.8456 84.2197 46.8997 84.2419C46.9553 84.2642 47.03 84.288 47.1238 84.3135C47.2319 84.3437 47.3194 84.3739 47.3861 84.4041C47.4529 84.4327 47.5093 84.4772 47.5554 84.5376C47.6015 84.598 47.6246 84.6791 47.6246 84.7808C47.6246 84.8587 47.6039 84.9327 47.5626 85.0026C47.5213 85.0726 47.46 85.129 47.379 85.1719C47.2979 85.2148 47.2009 85.2363 47.088 85.2363ZM48.2635 84.0583V84.8667C48.2635 84.9462 48.2786 85.001 48.3088 85.0312C48.339 85.0614 48.3923 85.0765 48.4686 85.0765H48.6212V85.2196H48.4423C48.3247 85.2196 48.2373 85.1926 48.18 85.1385C48.1228 85.0829 48.0942 84.9923 48.0942 84.8667V84.0583H47.913V83.9176H48.0942V83.5909H48.2635V83.9176H48.6212V84.0583H48.2635ZM49.0245 85.2315C48.9895 85.2315 48.9601 85.2196 48.9362 85.1958C48.914 85.1719 48.9028 85.1425 48.9028 85.1075C48.9028 85.0726 48.914 85.0439 48.9362 85.0217C48.9601 84.9978 48.9895 84.9859 49.0245 84.9859C49.0578 84.9859 49.0857 84.9978 49.1079 85.0217C49.1318 85.0439 49.1437 85.0726 49.1437 85.1075C49.1437 85.1425 49.1318 85.1719 49.1079 85.1958C49.0857 85.2196 49.0578 85.2315 49.0245 85.2315Z" fill="black"/>
<path d="M35.3973 86.2383H35.3352L34.767 85.3722V86.2383H34.705V85.2715H34.767L35.3352 86.1348V85.2715H35.3973V86.2383ZM36.3567 85.8135C36.3567 85.8466 36.3557 85.8714 36.3539 85.888H35.7071C35.7089 85.9551 35.7237 86.0117 35.7512 86.0576C35.7788 86.1036 35.8151 86.1381 35.8602 86.1611C35.9052 86.184 35.9544 86.1955 36.0077 86.1955C36.0813 86.1955 36.1429 86.1776 36.1925 86.1417C36.2422 86.105 36.2734 86.0553 36.2863 85.9928H36.3511C36.3364 86.0691 36.2987 86.1312 36.238 86.179C36.1774 86.2259 36.1006 86.2493 36.0077 86.2493C35.9379 86.2493 35.8753 86.2337 35.8202 86.2024C35.765 86.1712 35.7218 86.1266 35.6906 86.0687C35.6593 86.0098 35.6437 85.9413 35.6437 85.8632C35.6437 85.785 35.6588 85.717 35.6892 85.6591C35.7204 85.6011 35.7636 85.557 35.8188 85.5267C35.874 85.4954 35.9369 85.4798 36.0077 85.4798C36.0795 85.4798 36.1415 85.4954 36.1939 85.5267C36.2472 85.557 36.2877 85.5979 36.3153 85.6494C36.3429 85.7 36.3567 85.7547 36.3567 85.8135ZM36.2946 85.837C36.2973 85.7708 36.2854 85.7147 36.2587 85.6687C36.233 85.6227 36.1976 85.5887 36.1525 85.5667C36.1075 85.5437 36.0588 85.5322 36.0064 85.5322C35.954 85.5322 35.9052 85.5437 35.8602 85.5667C35.816 85.5887 35.7797 85.6227 35.7512 85.6687C35.7237 85.7147 35.7089 85.7708 35.7071 85.837H36.2946ZM37.5808 85.4894L37.345 86.2383H37.2857L37.0471 85.5749L36.8072 86.2383H36.7479L36.512 85.4894H36.5768L36.7782 86.1679L37.0182 85.4894H37.0775L37.316 86.1652L37.5174 85.4894H37.5808ZM38.6526 86.2493C38.5634 86.2493 38.483 86.2286 38.4112 86.1873C38.3395 86.145 38.2834 86.0861 38.243 86.0107C38.2025 85.9353 38.1823 85.8503 38.1823 85.7556C38.1823 85.66 38.2025 85.5749 38.243 85.5005C38.2834 85.4251 38.3395 85.3667 38.4112 85.3253C38.483 85.283 38.5634 85.2619 38.6526 85.2619C38.7418 85.2619 38.8222 85.283 38.8939 85.3253C38.9656 85.3667 39.0217 85.4251 39.0622 85.5005C39.1026 85.5749 39.1228 85.66 39.1228 85.7556C39.1228 85.8503 39.1026 85.9353 39.0622 86.0107C39.0217 86.0861 38.9656 86.145 38.8939 86.1873C38.8222 86.2286 38.7418 86.2493 38.6526 86.2493ZM38.6526 86.1942C38.7289 86.1942 38.7978 86.1762 38.8594 86.1404C38.921 86.1045 38.9693 86.0535 39.0042 85.9873C39.0401 85.9211 39.058 85.8439 39.058 85.7556C39.058 85.6664 39.0401 85.5887 39.0042 85.5225C38.9693 85.4563 38.921 85.4053 38.8594 85.3695C38.7978 85.3336 38.7289 85.3157 38.6526 85.3157C38.5763 85.3157 38.5073 85.3336 38.4457 85.3695C38.3841 85.4053 38.3354 85.4563 38.2995 85.5225C38.2637 85.5887 38.2457 85.6664 38.2457 85.7556C38.2457 85.8439 38.2637 85.9211 38.2995 85.9873C38.3354 86.0535 38.3841 86.1045 38.4457 86.1404C38.5073 86.1762 38.5763 86.1942 38.6526 86.1942ZM39.43 85.6439C39.4484 85.5887 39.481 85.5469 39.5279 85.5184C39.5748 85.489 39.6345 85.4743 39.7072 85.4743V85.5391H39.6865C39.6129 85.5391 39.5518 85.5602 39.5031 85.6025C39.4543 85.6439 39.43 85.7119 39.43 85.8066V86.2383H39.3679V85.4894H39.43V85.6439ZM39.9696 85.2178V86.2383H39.9075V85.2178H39.9696ZM40.9289 85.8135C40.9289 85.8466 40.928 85.8714 40.9262 85.888H40.2794C40.2812 85.9551 40.2959 86.0117 40.3235 86.0576C40.3511 86.1036 40.3874 86.1381 40.4324 86.1611C40.4775 86.184 40.5267 86.1955 40.58 86.1955C40.6536 86.1955 40.7152 86.1776 40.7648 86.1417C40.8144 86.105 40.8457 86.0553 40.8586 85.9928H40.9234C40.9087 86.0691 40.871 86.1312 40.8103 86.179C40.7496 86.2259 40.6729 86.2493 40.58 86.2493C40.5101 86.2493 40.4476 86.2337 40.3924 86.2024C40.3373 86.1712 40.2941 86.1266 40.2628 86.0687C40.2316 86.0098 40.2159 85.9413 40.2159 85.8632C40.2159 85.785 40.2311 85.717 40.2614 85.6591C40.2927 85.6011 40.3359 85.557 40.3911 85.5267C40.4462 85.4954 40.5092 85.4798 40.58 85.4798C40.6517 85.4798 40.7138 85.4954 40.7662 85.5267C40.8195 85.557 40.86 85.5979 40.8875 85.6494C40.9151 85.7 40.9289 85.7547 40.9289 85.8135ZM40.8668 85.837C40.8696 85.7708 40.8577 85.7147 40.831 85.6687C40.8053 85.6227 40.7699 85.5887 40.7248 85.5667C40.6798 85.5437 40.631 85.5322 40.5786 85.5322C40.5262 85.5322 40.4775 85.5437 40.4324 85.5667C40.3883 85.5887 40.352 85.6227 40.3235 85.6687C40.2959 85.7147 40.2812 85.7708 40.2794 85.837H40.8668ZM41.1353 85.8632C41.1353 85.7859 41.1505 85.7184 41.1808 85.6604C41.2121 85.6025 41.2548 85.5579 41.3091 85.5267C41.3642 85.4954 41.4268 85.4798 41.4966 85.4798C41.5757 85.4798 41.6428 85.4991 41.698 85.5377C41.7531 85.5763 41.7918 85.6255 41.8138 85.6853V85.4894H41.8759V86.2383H41.8138V86.0411C41.7918 86.1018 41.7527 86.1519 41.6966 86.1914C41.6414 86.23 41.5748 86.2493 41.4966 86.2493C41.4268 86.2493 41.3642 86.2337 41.3091 86.2024C41.2548 86.1702 41.2121 86.1252 41.1808 86.0673C41.1505 86.0084 41.1353 85.9404 41.1353 85.8632ZM41.8138 85.8632C41.8138 85.7979 41.8 85.7404 41.7724 85.6908C41.7458 85.6402 41.709 85.6016 41.6621 85.5749C41.6152 85.5474 41.5628 85.5336 41.5049 85.5336C41.4442 85.5336 41.3909 85.5469 41.3449 85.5736C41.299 85.5993 41.2631 85.637 41.2374 85.6866C41.2116 85.7363 41.1988 85.7951 41.1988 85.8632C41.1988 85.9312 41.2116 85.99 41.2374 86.0397C41.2631 86.0893 41.299 86.1275 41.3449 86.1542C41.3918 86.1808 41.4451 86.1942 41.5049 86.1942C41.5628 86.1942 41.6152 86.1808 41.6621 86.1542C41.7099 86.1266 41.7472 86.088 41.7738 86.0383C41.8005 85.9877 41.8138 85.9294 41.8138 85.8632ZM42.4972 85.4743C42.5864 85.4743 42.659 85.5018 42.7151 85.557C42.7712 85.6113 42.7992 85.6922 42.7992 85.7997V86.2383H42.7385V85.8039C42.7385 85.7147 42.716 85.6467 42.6709 85.5998C42.6259 85.552 42.5648 85.5281 42.4875 85.5281C42.4066 85.5281 42.3418 85.5538 42.2931 85.6053C42.2453 85.6568 42.2214 85.7331 42.2214 85.8342V86.2383H42.1593V85.4894H42.2214V85.648C42.2425 85.592 42.2774 85.5492 42.3262 85.5198C42.3758 85.4894 42.4328 85.4743 42.4972 85.4743ZM43.3256 86.2493C43.242 86.2493 43.1735 86.2309 43.1201 86.1942C43.0677 86.1574 43.0383 86.105 43.0319 86.0369H43.0953C43.0999 86.0857 43.122 86.1243 43.1615 86.1528C43.202 86.1813 43.2567 86.1955 43.3256 86.1955C43.3826 86.1955 43.4277 86.1813 43.4608 86.1528C43.4948 86.1234 43.5118 86.0875 43.5118 86.0452C43.5118 86.0158 43.5026 85.9919 43.4842 85.9735C43.4667 85.9542 43.4447 85.9395 43.418 85.9294C43.3914 85.9193 43.355 85.9082 43.3091 85.8963C43.2539 85.8816 43.2093 85.8673 43.1753 85.8535C43.1413 85.8388 43.1123 85.8172 43.0884 85.7887C43.0645 85.7602 43.0526 85.722 43.0526 85.6742C43.0526 85.6393 43.0631 85.6071 43.0843 85.5777C43.1054 85.5474 43.1348 85.5235 43.1725 85.506C43.2102 85.4885 43.253 85.4798 43.3008 85.4798C43.3789 85.4798 43.4419 85.4996 43.4897 85.5391C43.5385 85.5777 43.5647 85.6315 43.5683 85.7004H43.5063C43.5035 85.6508 43.4842 85.6103 43.4484 85.5791C43.4125 85.5478 43.3629 85.5322 43.2994 85.5322C43.2461 85.5322 43.202 85.546 43.167 85.5736C43.1321 85.6011 43.1146 85.6347 43.1146 85.6742C43.1146 85.7092 43.1243 85.7377 43.1436 85.7597C43.1638 85.7809 43.1882 85.7974 43.2167 85.8094C43.2461 85.8204 43.2847 85.8324 43.3325 85.8452C43.3849 85.859 43.4268 85.8728 43.458 85.8866C43.4902 85.8995 43.5173 85.9188 43.5394 85.9445C43.5614 85.9694 43.5725 86.0029 43.5725 86.0452C43.5725 86.0838 43.5619 86.1188 43.5408 86.15C43.5196 86.1813 43.4902 86.2056 43.4525 86.2231C43.4148 86.2406 43.3725 86.2493 43.3256 86.2493ZM43.8603 86.0935L43.7307 86.4465H43.6838L43.7886 86.0935H43.8603ZM44.5818 86.1859H44.9417V86.2383H44.5197V85.2702H44.5818V86.1859ZM45.689 85.99H45.2298L45.1374 86.2383H45.0698L45.4256 85.2922H45.4946L45.849 86.2383H45.7814L45.689 85.99ZM45.6697 85.9376L45.4601 85.3736L45.2491 85.9376H45.6697ZM47.055 85.3088L46.6689 86.2383H46.6054L46.9971 85.3129H46.4206V85.2591H47.055V85.3088ZM47.2581 85.7432C47.2581 85.5841 47.2811 85.4619 47.3271 85.3764C47.373 85.2899 47.4576 85.2467 47.5808 85.2467C47.7031 85.2467 47.7872 85.2899 47.8332 85.3764C47.8792 85.4619 47.9021 85.5841 47.9021 85.7432C47.9021 85.9041 47.8792 86.0282 47.8332 86.1155C47.7872 86.202 47.7031 86.2452 47.5808 86.2452C47.4576 86.2452 47.373 86.202 47.3271 86.1155C47.2811 86.0282 47.2581 85.9041 47.2581 85.7432ZM47.8415 85.7432C47.8415 85.6513 47.8346 85.5736 47.8208 85.5101C47.8079 85.4467 47.7822 85.3966 47.7436 85.3598C47.7059 85.3221 47.6516 85.3033 47.5808 85.3033C47.51 85.3033 47.4553 85.3221 47.4167 85.3598C47.379 85.3966 47.3533 85.4467 47.3395 85.5101C47.3266 85.5736 47.3202 85.6513 47.3202 85.7432C47.3202 85.837 47.3266 85.916 47.3395 85.9804C47.3533 86.0438 47.379 86.0944 47.4167 86.1321C47.4553 86.1698 47.51 86.1886 47.5808 86.1886C47.6516 86.1886 47.7059 86.1698 47.7436 86.1321C47.7822 86.0944 47.8079 86.0438 47.8208 85.9804C47.8346 85.916 47.8415 85.837 47.8415 85.7432ZM48.0845 85.3143V85.2578H48.2886V86.2383H48.2265V85.3143H48.0845ZM48.5361 86.1928C48.7089 86.0733 48.845 85.9579 48.9443 85.8466C49.0445 85.7354 49.0946 85.6287 49.0946 85.5267C49.0946 85.4596 49.0767 85.4049 49.0408 85.3626C49.0059 85.3203 48.9484 85.2991 48.8685 85.2991C48.7885 85.2991 48.7273 85.3235 48.685 85.3722C48.6427 85.4209 48.6188 85.4853 48.6133 85.5653H48.5526C48.5591 85.4642 48.5903 85.3855 48.6464 85.3295C48.7025 85.2734 48.7765 85.2453 48.8685 85.2453C48.9521 85.2453 49.0206 85.2688 49.0739 85.3157C49.1282 85.3626 49.1553 85.4324 49.1553 85.5253C49.1553 85.6402 49.1024 85.7561 48.9967 85.8728C48.8919 85.9896 48.7719 86.0926 48.6368 86.1817H49.187V86.2341H48.5361V86.1928ZM49.3801 86.1928C49.5529 86.0733 49.689 85.9579 49.7883 85.8466C49.8885 85.7354 49.9386 85.6287 49.9386 85.5267C49.9386 85.4596 49.9207 85.4049 49.8848 85.3626C49.8499 85.3203 49.7924 85.2991 49.7124 85.2991C49.6324 85.2991 49.5713 85.3235 49.529 85.3722C49.4867 85.4209 49.4628 85.4853 49.4573 85.5653H49.3966C49.403 85.4642 49.4343 85.3855 49.4904 85.3295C49.5465 85.2734 49.6205 85.2453 49.7124 85.2453C49.7961 85.2453 49.8646 85.2688 49.9179 85.3157C49.9721 85.3626 49.9993 85.4324 49.9993 85.5253C49.9993 85.6402 49.9464 85.7561 49.8407 85.8728C49.7359 85.9896 49.6159 86.0926 49.4807 86.1817H50.031V86.2341H49.3801V86.1928Z" fill="#B3B3B3"/>
</g>
<rect opacity="0.5" x="4.60352" y="8.22266" width="3.41116" height="89.543" fill="#E8E8E8"/>
<rect x="34.187" y="53.4957" width="15.0648" height="15.9606" fill="white"/>
<path d="M32.4065 36C32.7819 36 33.0862 36.4909 33.0862 37.0964L33.086 43.8374L41.481 36.0088L41.4811 36L41.4856 36.0041L41.4905 36L41.4902 36.0088L56.4882 50.1022V69.4054L46.8453 69.4051L46.8457 56.3766C46.8457 55.9999 46.4845 55.69 46.0215 55.6527L45.9277 55.649H37.0533C36.578 55.649 36.187 55.9353 36.14 56.3022L36.1353 56.3766L36.135 69.4051L26.3679 69.4054V50.1031L28.5549 48.0631L28.5549 37.0964C28.5549 36.4909 28.8592 36 29.2346 36L32.4065 36Z" fill="#052DEA" stroke="#052DEA" stroke-width="3" stroke-linejoin="round"/>
<path d="M58.8376 69.4564H24.0102" stroke="#052DEA" stroke-width="3" stroke-linecap="round"/>
<path d="M56.0989 49.73L58.8283 52.3019" stroke="#052DEA" stroke-width="3" stroke-linecap="round"/>
<path d="M26.7107 49.7456L23.9813 52.3175" stroke="#052DEA" stroke-width="3" stroke-linecap="round"/>
<path fill-rule="evenodd" clip-rule="evenodd" d="M69.7241 3.86218H84.7775V23.3824L77.2508 25.6934L69.8459 23.3824L69.7241 3.86218Z" fill="white"/>
<path d="M69.7241 14.4091V23.4178L72.3112 24.1945V13.6191L69.7241 14.4091Z" fill="#AE0000"/>
<path d="M77.25 12.1239L74.666 12.9073V24.9166L77.25 25.6933" fill="#AE0000"/>
<path d="M77.25 12.1239V25.6933L79.8371 24.9166V12.9106L77.25 12.1239Z" fill="#E91C1C"/>
<path d="M82.1948 24.2045L84.7788 23.4278V14.4058L82.1948 13.6191V24.2045Z" fill="#E91C1C"/>
<path fill-rule="evenodd" clip-rule="evenodd" d="M69.7267 12.7347V3.48038L77.2346 1.19336V10.4477L69.7267 12.7347ZM73.5009 8.17239L74.4175 8.65369L74.2611 7.14007L75.0087 5.81234L73.9764 5.88868L73.5196 4.60742L73.0473 6.16751L72.0431 6.69196L72.7689 7.57159L72.5968 9.16819L73.5009 8.17239Z" fill="#031D9C"/>
<path fill-rule="evenodd" clip-rule="evenodd" d="M77.2354 10.4477V1.19336L84.762 3.48038V12.7347L77.2354 10.4477ZM81.0198 8.2569L82.0146 9.27262L81.8269 7.59304L82.6278 6.68354L81.5203 6.13585L81.0198 4.50606L80.513 5.85371L79.3743 5.77404L80.2002 7.16816L80.0063 8.76144L81.0198 8.2569Z" fill="#052DEA"/>
<path d="M70.1758 22.9777V2.87488L77.2363 0.688464L84.2969 2.87488V22.9777L77.2363 25.1702L70.1758 22.9777Z" stroke="white"/>
<defs>
<clipPath id="clip0">
<rect width="33.7048" height="9.30283" fill="white" transform="translate(25.5391 79.2188)"/>
</clipPath>
</defs>
</svg>
