<svg width="64" height="94" viewBox="0 0 64 94" fill="none" xmlns="http://www.w3.org/2000/svg">
<mask id="path-1-outside-1" maskUnits="userSpaceOnUse" x="-0.220703" y="0" width="64" height="94" fill="black">
<rect fill="white" x="-0.220703" width="64" height="94"/>
<path fill-rule="evenodd" clip-rule="evenodd" d="M61.4235 32.61C61.4235 15.7046 48.0726 2 31.6034 2C26.0293 2 20.5668 3.60371 15.8357 6.62917C1.85713 15.5681 -2.41526 34.4467 6.29303 48.7955L31.6034 90.5L56.9138 48.7955C59.8612 43.939 61.4235 38.3318 61.4235 32.61ZM13.2695 32.468C13.2695 22.0742 21.4779 13.6484 31.6034 13.6484C41.7289 13.6484 49.9373 22.0742 49.9373 32.468C49.9373 42.8617 41.7289 51.2875 31.6034 51.2875C21.4779 51.2875 13.2695 42.8617 13.2695 32.468Z"/>
</mask>
<path fill-rule="evenodd" clip-rule="evenodd" d="M61.4235 32.61C61.4235 15.7046 48.0726 2 31.6034 2C26.0293 2 20.5668 3.60371 15.8357 6.62917C1.85713 15.5681 -2.41526 34.4467 6.29303 48.7955L31.6034 90.5L56.9138 48.7955C59.8612 43.939 61.4235 38.3318 61.4235 32.61ZM13.2695 32.468C13.2695 22.0742 21.4779 13.6484 31.6034 13.6484C41.7289 13.6484 49.9373 22.0742 49.9373 32.468C49.9373 42.8617 41.7289 51.2875 31.6034 51.2875C21.4779 51.2875 13.2695 42.8617 13.2695 32.468Z" fill="#E91C1C"/>
<path d="M15.8357 6.62917L14.8908 5.1516V5.1516L15.8357 6.62917ZM6.29303 48.7955L7.79236 47.8856L6.29303 48.7955ZM31.6034 90.5L30.1041 91.4099L31.6034 93.8804L33.1028 91.4099L31.6034 90.5ZM56.9138 48.7955L58.4131 49.7054L56.9138 48.7955ZM31.6034 3.75385C47.061 3.75385 59.6697 16.6297 59.6697 32.61H63.1774C63.1774 14.7795 49.0842 0.246154 31.6034 0.246154V3.75385ZM16.7805 8.10673C21.2318 5.26025 26.3668 3.75385 31.6034 3.75385V0.246154C25.6918 0.246154 19.9018 1.94717 14.8908 5.1516L16.7805 8.10673ZM7.79236 47.8856C-0.431276 34.3353 3.61998 16.5226 16.7805 8.10673L14.8908 5.1516C0.0942743 14.6137 -4.39924 34.558 4.7937 49.7054L7.79236 47.8856ZM33.1028 89.5901L7.79236 47.8856L4.7937 49.7054L30.1041 91.4099L33.1028 89.5901ZM55.4145 47.8856L30.1041 89.5901L33.1028 91.4099L58.4131 49.7054L55.4145 47.8856ZM59.6697 32.61C59.6697 38.0134 58.1941 43.3055 55.4145 47.8856L58.4131 49.7054C61.5283 44.5726 63.1774 38.6503 63.1774 32.61H59.6697ZM31.6034 11.8946C20.4663 11.8946 11.5157 21.1491 11.5157 32.468H15.0234C15.0234 22.9994 22.4895 15.4023 31.6034 15.4023V11.8946ZM51.6911 32.468C51.6911 21.1491 42.7405 11.8946 31.6034 11.8946V15.4023C40.7174 15.4023 48.1834 22.9994 48.1834 32.468H51.6911ZM31.6034 53.0414C42.7405 53.0414 51.6911 43.7868 51.6911 32.468H48.1834C48.1834 41.9366 40.7174 49.5337 31.6034 49.5337V53.0414ZM11.5157 32.468C11.5157 43.7868 20.4663 53.0414 31.6034 53.0414V49.5337C22.4895 49.5337 15.0234 41.9366 15.0234 32.468H11.5157Z" fill="#2B2B2A" mask="url(#path-1-outside-1)"/>
<ellipse cx="31.6014" cy="32.576" rx="24.3574" ry="25.0027" fill="#F9FAFA"/>
<mask id="mask0" mask-type="alpha" maskUnits="userSpaceOnUse" x="7" y="7" width="49" height="51">
<ellipse cx="31.6014" cy="32.576" rx="24.3574" ry="25.0027" fill="white"/>
</mask>
<g mask="url(#mask0)">
<path d="M5.63397 20.3342H32.531V29.0066V36.657H5.63397V20.3342Z" fill="#E8E9ED"/>
<path d="M40.2689 20.3342H59.428V36.657H40.2689V20.3342Z" fill="#BBE2C6"/>
<path d="M27.0319 42.7645H59.428V59.0872H27.0319V42.7645Z" fill="#BBE2C6"/>
<path d="M19.2811 -1.15771H51.6771V15.1651H19.2811L19.2811 -1.15771Z" fill="#E8E9ED"/>
<path d="M-14.7876 40.3071H17.6084V56.6299H-14.7876V40.3071Z" fill="#E8E9ED"/>
<path d="M-9.99783 -1.15771H22.3982V15.1651H-9.99783V-1.15771Z" fill="#EAEAEA"/>
<path d="M31.6027 5.7251C31.2761 6.95614 31.2761 10.4964 31.6027 16.3459C32.0927 25.1201 42.1793 23.9351 39.9787 33.1476C37.7781 42.3601 25.9446 38.3782 24.9198 49.6858C24.2367 57.2243 26.301 62.2243 31.1128 64.6858" stroke="white" stroke-width="18.2848"/>
<path d="M31.6027 5.7251C31.2761 6.95614 31.2761 10.4964 31.6027 16.3459C32.0927 25.1201 42.1793 23.9351 39.9787 33.1476C37.7781 42.3601 25.9446 38.3782 24.9198 49.6858C24.2367 57.2243 26.301 62.2243 31.1128 64.6858" stroke="#9CC0F9" stroke-width="10.4484"/>
</g>
</svg>
