<svg width="51" height="94" viewBox="0 0 51 94" fill="none" xmlns="http://www.w3.org/2000/svg">
<path d="M43.966 1.0625H43.9648L6.72666 1.0625L6.72541 1.0625C5.14454 1.06461 3.79404 1.94474 2.87295 3.20623C1.95132 4.46846 1.40951 6.1659 1.4082 7.99932V7.99999V90.4998C1.40814 91.2265 1.67858 91.9999 2.25943 92.4915C2.89188 93.0269 3.7591 93.0955 4.46053 92.6151C4.46056 92.6151 4.46059 92.6151 4.46062 92.615L25.3457 78.3134L46.2308 92.615C46.2308 92.6151 46.2308 92.6151 46.2309 92.6151C46.9323 93.0955 47.7995 93.0269 48.432 92.4915C49.0128 91.9999 49.2833 91.2265 49.2832 90.4997V7.99999V7.99932C49.2819 6.1659 48.7401 4.46846 47.8185 3.20623C46.8974 1.94474 45.5469 1.06461 43.966 1.0625Z" fill="#FFD900" stroke="#171518" stroke-width="1.875"/>
<path d="M25.345 39.8535L12.998 48.4453L17.3539 34.0477L5.36719 24.96L20.4062 24.6535L25.345 10.4453L30.2837 24.6535L45.3228 24.96L33.3361 34.0477L37.6919 48.4453L25.345 39.8535Z" fill="white"/>
</svg>
